Coordinates
version=1
nRows=5
nColumns=40
inDegrees=yes

Units are S.I. units (second, meters, Newtons, ...)
Angles are in degrees.

endheader
time	pelvis_tilt	pelvis_list	pelvis_rotation	pelvis_tx	pelvis_ty	pelvis_tz	hip_flexion_r	hip_adduction_r	hip_rotation_r	knee_angle_r	knee_angle_r_beta	ankle_angle_r	subtalar_angle_r	mtp_angle_r	hip_flexion_l	hip_adduction_l	hip_rotation_l	knee_angle_l	knee_angle_l_beta	ankle_angle_l	subtalar_angle_l	mtp_angle_l	lumbar_extension	lumbar_bending	lumbar_rotation	arm_flex_r	arm_add_r	arm_rot_r	elbow_flex_r	pro_sup_r	wrist_flex_r	wrist_dev_r	arm_flex_l	arm_add_l	arm_rot_l	elbow_flex_l	pro_sup_l	wrist_flex_l	wrist_dev_l
     13.91000000	     -3.61029672	     -2.71180862	     -0.74864501	      1.01439013	      0.92606104	      0.41180043	     10.31190383	     -8.36208008	     -8.23174412	     44.71636487	     44.71636487	      6.34085438	    -18.02409159	     -5.51265663	     17.18471750	     -0.58664272	     -3.53094086	     25.63751122	     25.63751122	     14.93615005	    -13.56827045	      2.30918388	     -8.32311582	      4.51755858	      2.91553626	     43.20936438	    -12.19982762	     -1.42397104	     48.99338268	     44.52764757	      0.00000000	      0.00000000	     13.71818364	    -17.74084966	     27.10914166	     39.66021762	     44.62497568	      0.00000000	      0.00000000
     13.93378571	     -3.41848744	     -2.38447485	     -1.36174535	      1.01400329	      0.92528292	      0.40968198	     12.77457812	     -9.04270988	     -7.61478712	     49.24231631	     49.24231631	      6.02830857	    -18.89646087	     -0.37953370	     16.78225686	      0.09206408	     -3.15604314	     25.91319980	     25.91319980	     15.28525200	    -15.26539235	      3.33217036	     -8.43769495	      4.41374727	      2.84398658	     40.50900071	    -12.55545661	     -1.57384180	     47.62365165	     44.63010056	      0.00000000	      0.00000000	     15.15810992	    -17.48158336	     25.89975451	     40.61767330	     44.82066989	      0.00000000	      0.00000000
     13.95757143	     -3.22205570	     -2.14041427	     -1.96933231	      1.01357189	      0.92434461	      0.40779418	     15.34363652	     -9.41375933	     -6.65760838	     53.77566457	     53.77566457	      7.00254830	    -19.23136926	      8.67643602	     16.49189348	      0.51406018	     -3.30060006	     26.45376746	     26.45376746	     16.00012123	    -15.94908089	      4.23154496	     -8.61539488	      4.39368859	      2.55130770	     37.62518704	    -12.72455156	     -1.90139292	     46.56357576	     44.74357993	      0.00000000	      0.00000000	     16.31044450	    -17.29173447	     23.52725259	     42.10181580	     45.14626135	      0.00000000	      0.00000000
     13.98135714	     -2.99308183	     -1.89139067	     -2.56706756	      1.01320949	      0.92344177	      0.40598485	     17.63321102	     -9.72762072	     -5.71928141	     57.58805618	     57.58805618	      7.45320878	    -19.44514130	     15.20049787	     16.10637689	      0.95977776	     -3.41222850	     26.88805269	     26.88805269	     16.70844392	    -16.62672352	      5.15849280	     -8.82170064	      4.35235233	      2.40029476	     34.66648475	    -13.05531964	     -2.23061574	     45.09346766	     44.86083855	      0.00000000	      0.00000000	     17.55841730	    -17.01993886	     21.07032024	     43.63848628	     45.46140831	      0.00000000	      0.00000000
     14.00514286	     -2.77783518	     -1.69076351	     -3.12665522	      1.01285599	      0.92259749	      0.40449810	     19.65060095	     -9.84897645	     -4.76866858	     60.60188424	     60.60188424	      7.51534987	    -19.56410449	     19.15076445	     15.72937783	      1.31850832	     -3.58413237	     27.30398490	     27.30398490	     17.41557194	    -17.11912130	      6.00908486	     -9.03860569	      4.33600334	      2.21985866	     31.62944709	    -13.36442920	     -2.62172252	     43.52688457	     44.97544247	      0.00000000	      0.00000000	     18.81291776	    -16.79089913	     18.50385463	     45.32514449	     45.76718176	      0.00000000	      0.00000000
